<?xml version="1.0" encoding="UTF-8" standalone="no"?>
<!-- Created with Inkscape (http://www.inkscape.org/) -->

<svg
   xmlns:dc="http://purl.org/dc/elements/1.1/"
   xmlns:cc="http://creativecommons.org/ns#"
   xmlns:rdf="http://www.w3.org/1999/02/22-rdf-syntax-ns#"
   xmlns:svg="http://www.w3.org/2000/svg"
   xmlns="http://www.w3.org/2000/svg"
   xmlns:sodipodi="http://sodipodi.sourceforge.net/DTD/sodipodi-0.dtd"
   xmlns:inkscape="http://www.inkscape.org/namespaces/inkscape"
   width="210mm"
   height="297mm"
   viewBox="0 0 744.09448819 1052.3622047"
   id="svg2"
   version="1.1"
   inkscape:version="0.91 r13725"
   sodipodi:docname="SarasSymbolSolid.svg"
   inkscape:export-filename="C:\Users\t-macarl\Documents\GitHub\wordclock\SarasSymbolSolidLarge.png"
   inkscape:export-xdpi="193.14113"
   inkscape:export-ydpi="193.14113">
  <defs
     id="defs4" />
  <sodipodi:namedview
     id="base"
     pagecolor="#ffffff"
     bordercolor="#666666"
     borderopacity="1.0"
     inkscape:pageopacity="0.0"
     inkscape:pageshadow="2"
     inkscape:zoom="8"
     inkscape:cx="69.076533"
     inkscape:cy="970.6351"
     inkscape:document-units="px"
     inkscape:current-layer="layer1"
     showgrid="true"
     showguides="true"
     inkscape:guide-bbox="true"
     inkscape:window-width="1920"
     inkscape:window-height="1137"
     inkscape:window-x="-8"
     inkscape:window-y="499"
     inkscape:window-maximized="1">
    <inkscape:grid
       type="xygrid"
       id="grid4240" />
    <sodipodi:guide
       position="170,1020"
       orientation="1,0"
       id="guide4244"
       inkscape:label=""
       inkscape:color="rgb(0,0,255)" />
    <sodipodi:guide
       position="87.000001,883.00002"
       orientation="0,1"
       id="guide4246"
       inkscape:label=""
       inkscape:color="rgb(0,0,255)" />
    <sodipodi:guide
       position="85.000001,995.00002"
       orientation="1,0"
       id="guide4252"
       inkscape:label=""
       inkscape:color="rgb(0,0,255)" />
    <sodipodi:guide
       position="0,0"
       orientation="0,744.09449"
       id="guide4254" />
    <sodipodi:guide
       position="744.09449,0"
       orientation="-1052.3622,0"
       id="guide4256" />
    <sodipodi:guide
       position="744.09449,1052.362"
       orientation="0,1"
       id="guide4258"
       inkscape:label=""
       inkscape:color="rgb(0,0,255)" />
    <sodipodi:guide
       position="0,1052.3622"
       orientation="1052.3622,0"
       id="guide4260" />
    <sodipodi:guide
       position="-65.000001,969.00002"
       orientation="0,1"
       id="guide4262"
       inkscape:label=""
       inkscape:color="rgb(0,0,255)" />
  </sodipodi:namedview>
  <metadata
     id="metadata7">
    <rdf:RDF>
      <cc:Work
         rdf:about="">
        <dc:format>image/svg+xml</dc:format>
        <dc:type
           rdf:resource="http://purl.org/dc/dcmitype/StillImage" />
        <dc:title></dc:title>
      </cc:Work>
    </rdf:RDF>
  </metadata>
  <g
     inkscape:label="Layer 1"
     inkscape:groupmode="layer"
     id="layer1">
    <path
       sodipodi:type="star"
       style="fill:#000000;fill-opacity:1;stroke:none;stroke-width:20;stroke-linecap:round;stroke-linejoin:miter;stroke-miterlimit:4;stroke-dasharray:none;stroke-opacity:1"
       id="path4142"
       sodipodi:sides="3"
       sodipodi:cx="211.83305"
       sodipodi:cy="122.25295"
       sodipodi:r1="25.981125"
       sodipodi:r2="12.477658"
       sodipodi:arg1="0.52888155"
       sodipodi:arg2="1.5971698"
       inkscape:flatsided="false"
       inkscape:rounded="0"
       inkscape:randomized="0"
       d="m 234.26443,135.3622 -22.76042,-0.63593 -22.23958,0.3982 11.93093,-19.39313 10.77495,-19.45915 10.82948,20.02906 z"
       inkscape:transform-center-x="0.15243028"
       inkscape:transform-center-y="-67.222023"
       transform="matrix(0.39972222,0,0,0.69487069,0.36123125,-64.072026)" />
    <circle
       style="fill:none;stroke:#000000;stroke-width:1;stroke-linecap:round;stroke-linejoin:miter;stroke-miterlimit:4;stroke-dasharray:none;stroke-opacity:1"
       id="path3338-2"
       cx="84.591438"
       cy="84.613472"
       r="84.541435" />
    <circle
       style="fill:none;stroke:#000000;stroke-width:6;stroke-linecap:round;stroke-linejoin:miter;stroke-miterlimit:4;stroke-dasharray:none;stroke-opacity:1"
       id="path3338-7"
       cx="85.020393"
       cy="83.411812"
       r="48.439213" />
    <path
       sodipodi:type="star"
       style="fill:#000000;fill-opacity:1;stroke:none;stroke-width:20;stroke-linecap:round;stroke-linejoin:miter;stroke-miterlimit:4;stroke-dasharray:none;stroke-opacity:1"
       id="path4142-5"
       sodipodi:sides="3"
       sodipodi:cx="211.83305"
       sodipodi:cy="122.25295"
       sodipodi:r1="25.981125"
       sodipodi:r2="12.477658"
       sodipodi:arg1="0.52888155"
       sodipodi:arg2="1.5971698"
       inkscape:flatsided="false"
       inkscape:rounded="0"
       inkscape:randomized="0"
       d="m 234.26443,135.3622 -22.76042,-0.63593 -22.23958,0.3982 11.93093,-19.39313 10.77495,-19.45915 10.82948,20.02906 z"
       inkscape:transform-center-x="0.027430275"
       inkscape:transform-center-y="4.4720243"
       transform="matrix(0.39972222,0,0,-0.69487069,0.236231,231.00893)" />
    <circle
       style="fill:none;stroke:none;stroke-width:11.25;stroke-linecap:round;stroke-linejoin:miter;stroke-miterlimit:4;stroke-dasharray:none;stroke-opacity:1"
       id="path3338-7-9"
       cx="84.520393"
       cy="83.661797"
       r="48.439213" />
    <path
       sodipodi:type="star"
       style="fill:#000000;fill-opacity:1;stroke:none;stroke-width:20;stroke-linecap:round;stroke-linejoin:miter;stroke-miterlimit:4;stroke-dasharray:none;stroke-opacity:1"
       id="path4142-5-5"
       sodipodi:sides="3"
       sodipodi:cx="211.83305"
       sodipodi:cy="122.25295"
       sodipodi:r1="25.981125"
       sodipodi:r2="12.477658"
       sodipodi:arg1="0.52888155"
       sodipodi:arg2="1.5971698"
       inkscape:flatsided="false"
       inkscape:rounded="0"
       inkscape:randomized="0"
       d="m 234.26443,135.3622 -22.76042,-0.63593 -22.23958,0.3982 11.93093,-19.39313 10.77495,-19.45915 10.82948,20.02906 z"
       inkscape:transform-center-x="4.4720241"
       inkscape:transform-center-y="-0.027430305"
       transform="matrix(0,0.39972222,0.69487069,0,-63.289389,-1.1154451)" />
    <path
       sodipodi:type="star"
       style="fill:#000000;fill-opacity:1;stroke:none;stroke-width:20;stroke-linecap:round;stroke-linejoin:miter;stroke-miterlimit:4;stroke-dasharray:none;stroke-opacity:1"
       id="path4142-5-5-9"
       sodipodi:sides="3"
       sodipodi:cx="211.83305"
       sodipodi:cy="122.25295"
       sodipodi:r1="25.981125"
       sodipodi:r2="12.477658"
       sodipodi:arg1="0.52888155"
       sodipodi:arg2="1.5971698"
       inkscape:flatsided="false"
       inkscape:rounded="0"
       inkscape:randomized="0"
       d="m 234.26443,135.3622 -22.76042,-0.63593 -22.23958,0.3982 11.93093,-19.39313 10.77495,-19.45915 10.82948,20.02906 z"
       inkscape:transform-center-x="-4.4720264"
       inkscape:transform-center-y="-0.027430305"
       transform="matrix(0,0.39972222,-0.69487069,0,232.16656,-1.3654421)" />
    <path
       sodipodi:type="star"
       style="fill:#000000;fill-opacity:1;stroke:none;stroke-width:20;stroke-linecap:round;stroke-linejoin:miter;stroke-miterlimit:4;stroke-dasharray:none;stroke-opacity:1"
       id="path4142-5-5-9-5-6"
       sodipodi:sides="3"
       sodipodi:cx="211.83305"
       sodipodi:cy="122.25295"
       sodipodi:r1="25.981125"
       sodipodi:r2="12.477658"
       sodipodi:arg1="0.52888155"
       sodipodi:arg2="1.5971698"
       inkscape:flatsided="false"
       inkscape:rounded="0"
       inkscape:randomized="0"
       d="m 234.26443,135.3622 -22.76042,-0.63593 -22.23958,0.3982 11.93093,-19.39313 10.77495,-19.45915 10.82948,20.02906 z"
       inkscape:transform-center-x="1.5974235"
       inkscape:transform-center-y="-1.6098478"
       transform="matrix(0.34591742,0.20029726,-0.34819353,0.60133729,86.225949,-86.038626)" />
    <path
       style="fill:#000000;fill-opacity:1;stroke:none;stroke-width:0.125;stroke-linecap:round;stroke-linejoin:miter;stroke-miterlimit:4;stroke-dasharray:none;stroke-opacity:1"
       id="path4500"
       d="m 96.313771,28.999557 c 1.005707,-0.309228 2.007191,-0.623146 2.984746,-1.032168 0.484191,-0.225444 0.967613,-0.458086 1.426203,-0.744579 0.092,-0.05746 0.52627,-0.335833 0.60609,-0.468993 0.0523,-0.08725 0.0451,-0.20408 0.0676,-0.306119 -0.0303,-0.135141 -0.0439,-0.27643 -0.091,-0.405423 -0.37587,-1.030654 -1.345468,-1.8096 -2.102522,-2.465071 -0.337701,-0.26545 -0.664585,-0.547604 -0.999697,-0.817036 -0.206551,-0.166067 -0.49232,-0.367457 -0.681343,-0.569492 -0.207951,-0.222266 -0.232308,-0.308401 -0.372923,-0.575372 -0.125511,-0.359862 -0.278303,-0.786784 -0.136398,-1.174585 0.115773,-0.316389 0.263555,-0.40648 0.488888,-0.631403 0.944126,-0.626699 2.027215,-0.752062 3.103365,-0.748888 0.88645,0.0026 1.77284,0.01806 2.65926,0.02709 -0.60383,-0.0115 1.92174,0.08794 1.44154,0.06002 -0.41974,-0.0244 -0.85293,0.06315 -1.26,-0.05414 -0.17232,-0.04965 0.35022,-0.08328 0.51417,-0.160772 0.37742,-0.178381 0.47284,-0.333216 0.75716,-0.637148 0.2629,-0.411224 0.58159,-0.916804 0.56129,-1.455167 -0.0102,-0.269 -0.10651,-0.439047 -0.20416,-0.677607 -0.31666,-0.624379 -0.79137,-1.119332 -1.14896,-1.709411 -0.26824,-0.505192 -0.42941,-0.80443 -0.17602,-1.359268 0.12399,-0.231109 0.28223,-0.436621 0.46459,-0.611596 0,0 1.97483,0.211171 1.97483,0.211171 l 0,0 c -0.19282,0.122881 -0.33836,0.317109 -0.4657,0.518047 -0.27483,0.444839 -0.0636,0.683394 0.15303,1.107457 0.37994,0.583683 0.83189,1.112519 1.1385,1.754072 0.11076,0.29786 0.20148,0.464281 0.21097,0.794684 0.0169,0.587393 -0.3165,1.135876 -0.59336,1.596757 -0.27634,0.322325 -0.40992,0.530665 -0.77951,0.738528 -0.87536,0.492331 -2.27639,0.259783 -3.0107,0.268655 -0.15811,0.002 -1.30087,-0.05797 -1.41561,-0.06371 0.34137,-0.0074 0.68356,0.0049 1.02414,-0.02232 0.25399,-0.02034 -0.50949,-0.0099 -0.76392,0.0015 -0.62337,0.02781 -1.23178,0.145874 -1.817442,0.391385 -0.150065,0.0629 -0.292416,0.146843 -0.43862,0.220264 -0.14729,0.12827 -0.367764,0.281733 -0.459006,0.484915 -0.143861,0.320355 0.02209,0.71656 0.129172,1.010773 0.04842,0.08435 0.09,0.174144 0.145267,0.253031 0.149868,0.213942 0.296204,0.340803 0.489088,0.509057 0.440461,0.384218 0.896121,0.747152 1.337811,1.12961 0.78714,0.69408 1.79334,1.512708 2.16354,2.604891 0.0543,0.160424 0.0691,0.33436 0.1037,0.501542 -0.0247,0.150435 -0.009,0.316821 -0.0741,0.451307 -0.0739,0.152836 -0.53462,0.447832 -0.63618,0.512309 -0.46462,0.294941 -0.95557,0.531108 -1.4451,0.767873 -0.95396,0.413083 -1.930742,0.737718 -2.915582,1.044748 0,0 -1.957155,-0.269397 -1.957155,-0.269397 z"
       inkscape:connector-curvature="0"
       inkscape:transform-center-x="-16.25"
       inkscape:transform-center-y="-62.250001" />
    <path
       id="path4522-7"
       style="fill:#000000;fill-rule:evenodd;stroke:#000000;stroke-width:0.0625;stroke-linecap:butt;stroke-linejoin:miter;stroke-miterlimit:4;stroke-dasharray:none;stroke-opacity:1;fill-opacity:1"
       d="m 85.918193,83.518496 c 2.071424,0.529421 0.963756,3.458655 -0.06898,4.36843 -3.274185,2.884357 -8.107669,0.290556 -9.904095,-2.970454 -3.541453,-6.428713 0.96975,-14.016238 7.15511,-16.640619 9.993047,-4.239941 20.891352,2.610619 24.327942,12.22748 4.98094,13.938571 -4.54427,28.568717 -18.012851,32.823957 -18.228697,5.75915 -36.943821,-6.72205 -42.03338,-24.40697 -6.57086,-22.83207 9.112385,-45.942911 31.338919,-51.886602 0.301458,-0.08061 25.402762,-0.979739 39.375252,11.327455 12.37941,10.903976 13.81897,35.184938 14.08855,35.123596 M 85.271561,83.349315 c 0.988173,0.332326 0.332958,1.761406 -0.168362,2.186999 -1.898993,1.612145 -4.60069,-0.0705 -5.545114,-1.915794 -2.098179,-4.099602 1.091969,-8.68557 4.972939,-10.138263 6.869653,-2.571393 13.894329,2.621668 15.850446,9.149829 C 103.43244,92.814103 95.776694,102.77536 86.038327,105.2367 72.027261,108.77794 58.666926,98.230289 55.694475,84.753265 51.650681,66.418793 65.496063,49.221783 83.213682,45.729741 106.3469,41.170316 128.34488,58.609838 131.82086,81.139737 l 0.34729,2.250996"
       inkscape:connector-curvature="0"
       sodipodi:nodetypes="cssssssssccssssssssc" />
    <path
       sodipodi:type="star"
       style="fill:#000000;fill-opacity:1;stroke:none;stroke-width:20;stroke-linecap:round;stroke-linejoin:miter;stroke-miterlimit:4;stroke-dasharray:none;stroke-opacity:1"
       id="path4142-1"
       sodipodi:sides="3"
       sodipodi:cx="211.83305"
       sodipodi:cy="122.25295"
       sodipodi:r1="25.981125"
       sodipodi:r2="12.477658"
       sodipodi:arg1="0.52888155"
       sodipodi:arg2="1.5971698"
       inkscape:flatsided="false"
       inkscape:rounded="0"
       inkscape:randomized="0"
       d="m 234.26443,135.3622 -22.76042,-0.63593 -22.23958,0.3982 11.93093,-19.39313 10.77495,-19.45915 10.82948,20.02906 z"
       inkscape:transform-center-x="-55.237622"
       inkscape:transform-center-y="-29.11168"
       transform="matrix(0.19932069,0.34648104,-0.60231709,0.34649589,169.97312,-63.419822)" />
    <path
       sodipodi:type="star"
       style="fill:#000000;fill-opacity:1;stroke:none;stroke-width:20;stroke-linecap:round;stroke-linejoin:miter;stroke-miterlimit:4;stroke-dasharray:none;stroke-opacity:1"
       id="path4142-5-5-9-5"
       sodipodi:sides="3"
       sodipodi:cx="211.83305"
       sodipodi:cy="122.25295"
       sodipodi:r1="25.981125"
       sodipodi:r2="12.477658"
       sodipodi:arg1="0.52888155"
       sodipodi:arg2="1.5971698"
       inkscape:flatsided="false"
       inkscape:rounded="0"
       inkscape:randomized="0"
       d="m 234.26443,135.3622 -22.76042,-0.63593 -22.23958,0.3982 11.93093,-19.39313 10.77495,-19.45915 10.82948,20.02906 z"
       inkscape:transform-center-x="-30.062394"
       inkscape:transform-center-y="55.666408"
       transform="matrix(-0.34404124,0.20350302,-0.35376639,-0.59807576,232.63776,167.34547)" />
    <path
       sodipodi:type="star"
       style="fill:#000000;fill-opacity:1;stroke:none;stroke-width:20;stroke-linecap:round;stroke-linejoin:miter;stroke-miterlimit:4;stroke-dasharray:none;stroke-opacity:1"
       id="path4142-5-5-9-5-8"
       sodipodi:sides="3"
       sodipodi:cx="211.83305"
       sodipodi:cy="122.25295"
       sodipodi:r1="25.981125"
       sodipodi:r2="12.477658"
       sodipodi:arg1="0.52888155"
       sodipodi:arg2="1.5971698"
       inkscape:flatsided="false"
       inkscape:rounded="0"
       inkscape:randomized="0"
       d="m 234.26443,135.3622 -22.76042,-0.63593 -22.23958,0.3982 11.93093,-19.39313 10.77495,-19.45915 10.82948,20.02906 z"
       inkscape:transform-center-x="-55.84706"
       inkscape:transform-center-y="29.73171"
       transform="matrix(-0.19875822,0.34680401,-0.60287853,-0.34551809,254.73373,83.441604)" />
    <path
       sodipodi:type="star"
       style="fill:#000000;fill-opacity:1;stroke:none;stroke-width:20;stroke-linecap:round;stroke-linejoin:miter;stroke-miterlimit:4;stroke-dasharray:none;stroke-opacity:1"
       id="path4142-5-5-7"
       sodipodi:sides="3"
       sodipodi:cx="211.83305"
       sodipodi:cy="122.25295"
       sodipodi:r1="25.981125"
       sodipodi:r2="12.477658"
       sodipodi:arg1="0.52888155"
       sodipodi:arg2="1.5971698"
       inkscape:flatsided="false"
       inkscape:rounded="0"
       inkscape:randomized="0"
       d="m 234.26443,135.3622 -22.76042,-0.63593 -22.23958,0.3982 11.93093,-19.39313 10.77495,-19.45915 10.82948,20.02906 z"
       inkscape:transform-center-x="56.552328"
       inkscape:transform-center-y="30.238083"
       transform="matrix(0.20038901,0.34586428,0.60124491,-0.34835303,-85.736485,84.589501)" />
    <path
       sodipodi:type="star"
       style="fill:#000000;fill-opacity:1;stroke:none;stroke-width:20;stroke-linecap:round;stroke-linejoin:miter;stroke-miterlimit:4;stroke-dasharray:none;stroke-opacity:1"
       id="path4142-5-5-7-0"
       sodipodi:sides="3"
       sodipodi:cx="211.83305"
       sodipodi:cy="122.25295"
       sodipodi:r1="25.981125"
       sodipodi:r2="12.477658"
       sodipodi:arg1="0.52888155"
       sodipodi:arg2="1.5971698"
       inkscape:flatsided="false"
       inkscape:rounded="0"
       inkscape:randomized="0"
       d="m 234.26443,135.3622 -22.76042,-0.63593 -22.23958,0.3982 11.93093,-19.39313 10.77495,-19.45915 10.82948,20.02906 z"
       inkscape:transform-center-x="30.241009"
       inkscape:transform-center-y="56.595157"
       transform="matrix(0.34564066,0.20077448,0.34902313,-0.60085617,-62.496713,169.5183)" />
    <path
       sodipodi:type="star"
       style="fill:#000000;fill-opacity:1;stroke:none;stroke-width:20;stroke-linecap:round;stroke-linejoin:miter;stroke-miterlimit:4;stroke-dasharray:none;stroke-opacity:1"
       id="path4142-2"
       sodipodi:sides="3"
       sodipodi:cx="211.83305"
       sodipodi:cy="122.25295"
       sodipodi:r1="25.981125"
       sodipodi:r2="12.477658"
       sodipodi:arg1="0.52888155"
       sodipodi:arg2="1.5971698"
       inkscape:flatsided="false"
       inkscape:rounded="0"
       inkscape:randomized="0"
       d="m 234.26443,135.3622 -22.76042,-0.63593 -22.23958,0.3982 11.93093,-19.39313 10.77495,-19.45915 10.82948,20.02906 z"
       inkscape:transform-center-x="29.831485"
       inkscape:transform-center-y="-55.971894"
       transform="matrix(0.34610835,-0.19996716,0.3476197,0.60166919,-62.528998,-1.8391518)" />
    <path
       sodipodi:type="star"
       style="fill:#000000;fill-opacity:1;stroke:none;stroke-width:20;stroke-linecap:round;stroke-linejoin:miter;stroke-miterlimit:4;stroke-dasharray:none;stroke-opacity:1"
       id="path4142-8"
       sodipodi:sides="3"
       sodipodi:cx="211.83305"
       sodipodi:cy="122.25295"
       sodipodi:r1="25.981125"
       sodipodi:r2="12.477658"
       sodipodi:arg1="0.52888155"
       sodipodi:arg2="1.5971698"
       inkscape:flatsided="false"
       inkscape:rounded="0"
       inkscape:randomized="0"
       d="m 234.26443,135.3622 -22.76042,-0.63593 -22.23958,0.3982 11.93093,-19.39313 10.77495,-19.45915 10.82948,20.02906 z"
       inkscape:transform-center-x="56.431351"
       inkscape:transform-center-y="-28.993129"
       transform="matrix(0.19604062,-0.34834742,0.60556157,0.34079387,-85.270251,84.965109)" />
    <g
       id="g3716"
       transform="matrix(0.96592583,-0.25881905,0.25881905,0.96592583,-18.728397,24.705185)"
       style="fill:#000000;fill-opacity:1">
      <circle
         r="2.225553"
         cy="5.0874481"
         cx="84.991325"
         id="path4206"
         style="fill:#000000;fill-opacity:1;stroke:#000000;stroke-width:0.04889406;stroke-linecap:round;stroke-linejoin:miter;stroke-miterlimit:4;stroke-dasharray:none;stroke-opacity:1" />
      <circle
         r="2.225553"
         cy="83.601166"
         cx="6.0354733"
         id="path4206-2"
         style="fill:#000000;fill-opacity:1;stroke:#000000;stroke-width:0.04889406;stroke-linecap:round;stroke-linejoin:miter;stroke-miterlimit:4;stroke-dasharray:none;stroke-opacity:1" />
      <circle
         r="2.225553"
         cy="161.87404"
         cx="84.935387"
         id="path4206-2-9"
         style="fill:#000000;fill-opacity:1;stroke:#000000;stroke-width:0.04889406;stroke-linecap:round;stroke-linejoin:miter;stroke-miterlimit:4;stroke-dasharray:none;stroke-opacity:1" />
      <circle
         r="2.225553"
         cy="83.418159"
         cx="162.89064"
         id="path4206-2-9-0"
         style="fill:#000000;fill-opacity:1;stroke:#000000;stroke-width:0.04889406;stroke-linecap:round;stroke-linejoin:miter;stroke-miterlimit:4;stroke-dasharray:none;stroke-opacity:1" />
      <circle
         r="2.225553"
         cy="122.54315"
         cx="152.76564"
         id="path4206-2-9-0-2"
         style="fill:#000000;fill-opacity:1;stroke:#000000;stroke-width:0.04889406;stroke-linecap:round;stroke-linejoin:miter;stroke-miterlimit:4;stroke-dasharray:none;stroke-opacity:1" />
      <circle
         r="2.225553"
         cy="151.16815"
         cx="124.26564"
         id="path4206-2-9-0-29"
         style="fill:#000000;fill-opacity:1;stroke:#000000;stroke-width:0.04889406;stroke-linecap:round;stroke-linejoin:miter;stroke-miterlimit:4;stroke-dasharray:none;stroke-opacity:1" />
      <circle
         r="2.225553"
         cy="152.29315"
         cx="45.39064"
         id="path4206-2-9-0-6"
         style="fill:#000000;fill-opacity:1;stroke:#000000;stroke-width:0.04889406;stroke-linecap:round;stroke-linejoin:miter;stroke-miterlimit:4;stroke-dasharray:none;stroke-opacity:1" />
      <circle
         r="2.225553"
         cy="123.41815"
         cx="16.76564"
         id="path4206-2-9-0-62"
         style="fill:#000000;fill-opacity:1;stroke:#000000;stroke-width:0.04889406;stroke-linecap:round;stroke-linejoin:miter;stroke-miterlimit:4;stroke-dasharray:none;stroke-opacity:1" />
      <circle
         r="2.225553"
         cy="45.543156"
         cx="16.26564"
         id="path4206-2-9-0-9"
         style="fill:#000000;fill-opacity:1;stroke:#000000;stroke-width:0.04889406;stroke-linecap:round;stroke-linejoin:miter;stroke-miterlimit:4;stroke-dasharray:none;stroke-opacity:1" />
      <circle
         r="2.225553"
         cy="15.543156"
         cx="45.39064"
         id="path4206-2-9-0-91"
         style="fill:#000000;fill-opacity:1;stroke:#000000;stroke-width:0.04889406;stroke-linecap:round;stroke-linejoin:miter;stroke-miterlimit:4;stroke-dasharray:none;stroke-opacity:1" />
      <circle
         r="2.225553"
         cy="16.097813"
         cx="125.16989"
         id="path4206-6"
         style="fill:#000000;fill-opacity:1;stroke:#000000;stroke-width:0.04889406;stroke-linecap:round;stroke-linejoin:miter;stroke-miterlimit:4;stroke-dasharray:none;stroke-opacity:1" />
      <circle
         r="2.225553"
         cy="44.609112"
         cx="152.34146"
         id="path4206-4"
         style="fill:#000000;fill-opacity:1;stroke:#000000;stroke-width:0.04889406;stroke-linecap:round;stroke-linejoin:miter;stroke-miterlimit:4;stroke-dasharray:none;stroke-opacity:1" />
    </g>
    <path
       style="fill:#000000;fill-opacity:1;stroke:none;stroke-width:0.125;stroke-linecap:round;stroke-linejoin:miter;stroke-miterlimit:4;stroke-dasharray:none;stroke-opacity:1"
       id="path4500-6"
       d="m 137.44081,68.355125 c 0.88426,0.570213 1.76939,1.134175 2.71187,1.618581 0.4843,0.225213 0.97361,0.445202 1.48813,0.611512 0.10317,0.03338 0.59584,0.186308 0.74911,0.161612 0.10044,-0.01618 0.18517,-0.09693 0.27772,-0.145437 0.0839,-0.110216 0.1832,-0.211613 0.25155,-0.330721 0.54637,-0.951314 0.51781,-2.19472 0.53168,-3.196009 -0.0144,-0.429302 -0.009,-0.861082 -0.0188,-1.290966 -0.006,-0.26496 -0.0359,-0.613286 -0.003,-0.887997 0.0361,-0.302223 0.0863,-0.376335 0.19999,-0.655843 0.19446,-0.327778 0.42265,-0.719614 0.81071,-0.860814 0.3166,-0.115201 0.48069,-0.06017 0.79788,-0.03264 1.08747,0.318641 1.88091,1.066466 2.57156,1.891764 0.56891,0.679808 1.12795,1.367852 1.69193,2.051777 -0.38009,-0.469335 1.17039,1.526765 0.88248,1.141432 -0.25166,-0.336814 -0.59763,-0.611819 -0.77007,-0.998767 -0.073,-0.163791 0.28927,0.214283 0.45414,0.289798 0.37953,0.173842 0.55943,0.147122 0.97504,0.168884 0.48391,-0.06372 1.07593,-0.145541 1.4747,-0.507786 0.19921,-0.181047 0.26728,-0.364242 0.38688,-0.592584 0.27371,-0.644364 0.34662,-1.326281 0.56774,-1.979867 0.21371,-0.530563 0.33883,-0.846576 0.92647,-1.010067 0.25665,-0.05399 0.51578,-0.06529 0.76708,-0.03847 0,0 1.11031,1.646743 1.11031,1.646743 l 0,0 c -0.21819,-0.06837 -0.46051,-0.05461 -0.69624,-0.02262 -0.5173,0.07625 -0.56375,0.391472 -0.74864,0.830303 -0.20183,0.666565 -0.31531,1.352892 -0.60863,2.000629 -0.15654,0.276563 -0.22542,0.453144 -0.47207,0.673195 -0.43847,0.391226 -1.07278,0.489417 -1.60366,0.57444 -0.42454,-0.0038 -0.66996,0.02818 -1.067,-0.120689 -0.94039,-0.352573 -1.6648,-1.574128 -2.1445,-2.130161 -0.10333,-0.119672 -0.79346,-1.032499 -0.86296,-1.123971 0.22552,0.256381 0.43648,0.526079 0.67665,0.769092 0.17914,0.181202 -0.32055,-0.396137 -0.49313,-0.583433 -0.42275,-0.458967 -0.9049,-0.848364 -1.46991,-1.138277 -0.14476,-0.07429 -0.30066,-0.129127 -0.45099,-0.193686 -0.19297,-0.03006 -0.45237,-0.0999 -0.66656,-0.03884 -0.33772,0.09627 -0.53394,0.478387 -0.69006,0.749788 -0.0333,0.09135 -0.0753,0.181002 -0.10001,0.274088 -0.0671,0.252433 -0.0699,0.446083 -0.0744,0.702 -0.0102,0.5844 0.006,1.166721 -0.003,1.75093 -0.024,1.049169 -0.002,2.346133 -0.59934,3.332735 -0.0878,0.144859 -0.21129,0.268201 -0.3169,0.40234 -0.13099,0.07799 -0.24817,0.197159 -0.39298,0.233971 -0.1645,0.0419 -0.6869,-0.120566 -0.80163,-0.156736 -0.52486,-0.165482 -1.02171,-0.38896 -1.51811,-0.610966 -0.93038,-0.463741 -1.80781,-1.001902 -2.67696,-1.557567 0,0 -1.05438,-1.670722 -1.05438,-1.670722 z"
       inkscape:connector-curvature="0"
       inkscape:transform-center-x="-2.3373995"
       inkscape:transform-center-y="-1.2922651" />
    <path
       style="fill:#000000;fill-opacity:1;stroke:none;stroke-width:0.125;stroke-linecap:round;stroke-linejoin:miter;stroke-miterlimit:4;stroke-dasharray:none;stroke-opacity:1"
       id="path4500-0"
       d="m 123.11493,43.585378 c 1.05057,0.0581 2.0988,0.110329 3.15752,0.06505 0.53229,-0.04386 1.06636,-0.09474 1.59577,-0.204739 0.10622,-0.02204 0.61001,-0.132862 0.731,-0.230149 0.0792,-0.06374 0.11295,-0.175842 0.16939,-0.26378 0.0184,-0.137277 0.0545,-0.274532 0.055,-0.411855 0.004,-1.097046 -0.63573,-2.163512 -1.11903,-3.040552 -0.2249,-0.365952 -0.43389,-0.74383 -0.65499,-1.112622 -0.1363,-0.227306 -0.33464,-0.515184 -0.44202,-0.770168 -0.11817,-0.28051 -0.11123,-0.369746 -0.15066,-0.668899 0.007,-0.38106 0.0113,-0.834479 0.2787,-1.149164 0.21815,-0.256738 0.38799,-0.290092 0.67727,-0.42309 1.1027,-0.261069 2.16221,-0.0037 3.1707,0.371885 0.83072,0.309348 1.65694,0.63074 2.48541,0.94611 -0.5625,-0.219849 1.77244,0.747849 1.33161,0.5554 -0.38534,-0.168213 -0.82204,-0.236058 -1.16334,-0.487031 -0.14446,-0.10624 0.35741,0.04312 0.53805,0.02719 0.41582,-0.03668 0.55896,-0.1489 0.93092,-0.335596 0.38901,-0.294768 0.86304,-0.658743 1.03038,-1.170837 0.0836,-0.255894 0.0521,-0.448769 0.0431,-0.706383 -0.081,-0.695388 -0.35484,-1.324105 -0.48611,-2.001477 -0.0767,-0.566819 -0.12433,-0.90335 0.30548,-1.336143 0.19634,-0.173887 0.41594,-0.311903 0.6476,-0.412918 0,0 1.77959,0.88184 1.77959,0.88184 l 0,0 c -0.22345,0.04851 -0.42723,0.180351 -0.61626,0.324771 -0.41186,0.322177 -0.29628,0.619109 -0.23986,1.091946 0.15434,0.679131 0.39526,1.331732 0.4608,2.039759 8.3e-4,0.317778 0.0282,0.505334 -0.0772,0.818578 -0.1875,0.556913 -0.69018,0.956045 -1.10949,1.292566 -0.37084,0.206714 -0.56829,0.355921 -0.98699,0.422968 -0.99169,0.158814 -2.22555,-0.544421 -2.91751,-0.790332 -0.14903,-0.05286 -1.20035,-0.504775 -1.306,-0.549886 0.32282,0.111248 0.63958,0.241262 0.96852,0.333642 0.24533,0.06885 -0.47455,-0.185686 -0.71719,-0.26308 -0.59444,-0.189735 -1.2061,-0.289618 -1.84054,-0.262059 -0.16256,0.0071 -0.32517,0.03652 -0.48776,0.05478 -0.18259,0.06934 -0.44255,0.136978 -0.5985,0.296004 -0.24589,0.250735 -0.22737,0.679891 -0.22877,0.992983 0.0163,0.09589 0.0242,0.194525 0.0489,0.287626 0.0666,0.252589 0.15995,0.422269 0.2826,0.646905 0.28019,0.512954 0.58202,1.011199 0.86397,1.522927 0.49815,0.923679 1.15871,2.040044 1.12787,3.192849 -0.005,0.169296 -0.0509,0.337605 -0.0764,0.506428 -0.0752,0.132573 -0.11814,0.294111 -0.22576,0.397738 -0.12225,0.117799 -0.65661,0.235038 -0.77421,0.260365 -0.538,0.115885 -1.08036,0.167421 -1.62159,0.220052 -1.03798,0.05725 -2.06674,0.02363 -3.09698,-0.02931 0,0 -1.74283,-0.930347 -1.74283,-0.930347 z"
       inkscape:connector-curvature="0"
       inkscape:transform-center-x="-0.54979459"
       inkscape:transform-center-y="-1.6754576" />
    <path
       style="fill:#000000;fill-opacity:1;stroke:none;stroke-width:0.125;stroke-linecap:round;stroke-linejoin:miter;stroke-miterlimit:4;stroke-dasharray:none;stroke-opacity:1"
       id="path4500-2"
       d="m 66.869337,31.180992 c 0.702406,-0.783387 1.398775,-1.568616 2.025617,-2.423006 0.2987,-0.442768 0.593032,-0.891309 0.838326,-1.373194 0.04922,-0.09666 0.277856,-0.559053 0.277616,-0.714303 -1.58e-4,-0.101724 -0.06655,-0.198126 -0.09987,-0.297162 -0.09562,-0.100186 -0.180108,-0.214247 -0.28696,-0.300505 -0.853352,-0.689431 -2.08573,-0.857126 -3.07233,-1.028572 -0.42621,-0.0534 -0.851761,-0.126679 -1.277804,-0.18482 -0.262598,-0.03583 -0.611286,-0.0611 -0.877404,-0.136796 -0.292765,-0.08327 -0.358037,-0.144526 -0.616145,-0.300814 -0.293048,-0.243674 -0.64404,-0.530749 -0.722337,-0.936207 -0.06388,-0.330794 0.01632,-0.48417 0.09347,-0.793061 0.485991,-1.023688 1.349482,-1.689406 2.273283,-2.241403 0.760949,-0.454705 1.528476,-0.89836 2.292714,-1.347539 -0.523357,0.301398 1.69209,-0.915231 1.26621,-0.69163 -0.372257,0.195452 -0.698334,0.493768 -1.107616,0.603091 -0.173255,0.04628 0.25718,-0.251889 0.357726,-0.402803 0.231467,-0.347404 0.233421,-0.529269 0.320392,-0.936268 0.01331,-0.487898 0.02579,-1.085409 -0.26911,-1.536274 -0.147401,-0.225252 -0.317583,-0.321322 -0.524229,-0.475412 -0.593195,-0.371811 -1.25511,-0.551245 -1.865697,-0.872566 -0.490266,-0.294637 -0.782621,-0.46798 -0.851487,-1.07404 -0.01288,-0.261952 0.01678,-0.519625 0.08286,-0.763563 0,0 1.801105,-0.836999 1.801105,-0.836999 l 0,0 c -0.101888,0.20469 -0.126486,0.446147 -0.132028,0.683972 -0.0062,0.522852 0.297765,0.618391 0.701987,0.870111 0.626442,0.304319 1.286319,0.52452 1.879754,0.916228 0.248448,0.198147 0.411971,0.293992 0.590414,0.572226 0.317262,0.494632 0.314291,1.136489 0.314614,1.674135 -0.07065,0.418647 -0.07773,0.666032 -0.287286,1.034662 -0.496327,0.873101 -1.816756,1.396008 -2.441421,1.782121 -0.134455,0.08321 -1.144612,0.620877 -1.245892,0.675102 0.288709,-0.182305 0.588276,-0.348151 0.866092,-0.547033 0.207162,-0.148352 -0.441691,0.25414 -0.653839,0.395059 -0.519837,0.345155 -0.980333,0.759939 -1.355641,1.272208 -0.09617,0.131253 -0.174883,0.276561 -0.262321,0.414839 -0.06009,0.185839 -0.169917,0.43099 -0.143371,0.65213 0.04186,0.348671 0.38829,0.602642 0.631706,0.79956 0.08497,0.04732 0.166887,0.102834 0.25491,0.141945 0.238703,0.106078 0.429492,0.139355 0.681505,0.184109 0.575487,0.102199 1.153026,0.178325 1.728659,0.278382 1.032282,0.189023 2.31648,0.371854 3.196689,1.116933 0.129223,0.10948 0.231563,0.250899 0.347389,0.376324 0.05638,0.141641 0.155597,0.276126 0.169135,0.424926 0.01546,0.169059 -0.227281,0.659329 -0.281073,0.766931 -0.246106,0.492233 -0.545071,0.947674 -0.842511,1.402896 -0.60453,0.845708 -1.274208,1.627387 -1.959865,2.398134 0,0 -1.815973,0.777994 -1.815973,0.777994 z"
       inkscape:connector-curvature="0"
       inkscape:transform-center-x="18.118669"
       inkscape:transform-center-y="-61.476586" />
    <path
       style="fill:#000000;fill-opacity:1;stroke:none;stroke-width:0.125;stroke-linecap:round;stroke-linejoin:miter;stroke-miterlimit:4;stroke-dasharray:none;stroke-opacity:1"
       id="path4500-23"
       d="m 43.258941,47.628318 c 0.212645,-1.030461 0.419147,-2.059476 0.530759,-3.113257 0.03525,-0.532939 0.06382,-1.068666 0.03323,-1.608524 -0.0061,-0.108297 -0.04129,-0.622928 -0.119642,-0.756958 -0.05134,-0.08782 -0.157227,-0.137704 -0.235864,-0.206511 -0.133055,-0.03844 -0.263467,-0.09448 -0.399213,-0.11523 -1.084388,-0.166218 -2.233686,0.309168 -3.172496,0.657605 -0.395161,0.168386 -0.799763,0.319253 -1.197169,0.483453 -0.244946,0.101208 -0.558965,0.254877 -0.827014,0.323417 -0.29489,0.0754 -0.382122,0.05533 -0.683817,0.05019 -0.375868,-0.06306 -0.823652,-0.134454 -1.095387,-0.445399 -0.221696,-0.253686 -0.229597,-0.426583 -0.318404,-0.732326 -0.09531,-1.129177 0.315756,-2.13904 0.836172,-3.080993 0.428667,-0.775916 0.86858,-1.545593 1.30287,-2.31839 -0.300528,0.523857 1.001466,-1.642523 0.746009,-1.234953 -0.223289,0.356257 -0.354899,0.778154 -0.653533,1.078622 -0.126415,0.127194 0.09544,-0.347102 0.106367,-0.528114 0.02515,-0.416693 -0.0647,-0.574826 -0.1944,-0.970287 -0.234071,-0.42829 -0.52403,-0.950878 -1.005787,-1.192036 -0.240743,-0.120448 -0.436152,-0.117805 -0.692272,-0.146942 -0.699719,-0.02271 -1.361991,0.155403 -2.051327,0.185077 -0.571935,-0.0078 -0.911806,-0.01046 -1.276361,-0.499496 -0.142977,-0.219869 -0.247039,-0.457453 -0.312726,-0.701495 0,0 1.135042,-1.629794 1.135042,-1.629794 l 0,0 c 0.01498,0.228155 0.115261,0.449178 0.230176,0.657471 0.257803,0.454918 0.568552,0.384476 1.044535,0.398529 0.694479,-0.05235 1.375509,-0.194205 2.085451,-0.154425 0.314415,0.04617 0.503956,0.04668 0.798191,0.197287 0.523107,0.267723 0.843604,0.823844 1.114495,1.288258 0.149667,0.397312 0.26807,0.614637 0.272532,1.038646 0.01058,1.004258 -0.8672,2.120708 -1.212629,2.768758 -0.0743,0.13958 -0.676549,1.112612 -0.736772,1.210445 0.157713,-0.302844 0.333092,-0.596932 0.473049,-0.908617 0.104338,-0.232461 -0.253747,0.441917 -0.366135,0.670463 -0.275463,0.559897 -0.464602,1.15009 -0.531065,1.781642 -0.01704,0.16182 -0.01191,0.326999 -0.01787,0.490494 0.04161,0.19083 0.0701,0.45794 0.204349,0.635666 0.211663,0.280218 0.638846,0.325302 0.948295,0.37294 0.09724,-0.0019 0.195966,0.0049 0.291711,-0.0056 0.259654,-0.02849 0.441264,-0.09576 0.681553,-0.183933 0.548715,-0.201349 1.086081,-0.426261 1.633844,-0.629534 0.987131,-0.356243 2.188824,-0.844631 3.324428,-0.643846 0.166765,0.02956 0.326377,0.100248 0.489591,0.150329 0.120008,0.09401 0.273434,0.160283 0.360026,0.282046 0.09845,0.138304 0.135467,0.68412 0.143145,0.804174 0.03509,0.549208 0.006,1.09323 -0.02189,1.636295 -0.0967,1.035049 -0.281927,2.047562 -0.486462,3.058672 0,0 -1.177588,1.58629 -1.177588,1.58629 z"
       inkscape:connector-curvature="0"
       inkscape:transform-center-x="46.750837"
       inkscape:transform-center-y="-43.748477" />
    <path
       style="fill:#000000;fill-opacity:1;stroke:none;stroke-width:0.125;stroke-linecap:round;stroke-linejoin:miter;stroke-miterlimit:4;stroke-dasharray:none;stroke-opacity:1"
       id="path4500-8"
       d="m 31.597382,72.822567 c -0.31368,-1.00433 -0.632031,-2.00441 -1.045379,-2.980149 -0.227586,-0.483186 -0.462367,-0.965571 -0.750889,-1.422888 -0.05787,-0.09174 -0.338161,-0.524777 -0.471673,-0.604006 -0.08748,-0.05191 -0.204278,-0.0442 -0.306415,-0.06624 -0.135006,0.0309 -0.276233,0.04512 -0.405016,0.09279 -1.028979,0.380432 -1.803623,1.353473 -2.455734,2.113419 -0.263952,0.338872 -0.544655,0.667009 -0.8126,1.003309 -0.16515,0.207283 -0.365273,0.493943 -0.566468,0.683856 -0.221343,0.208932 -0.307369,0.233673 -0.573715,0.375465 -0.359302,0.127112 -0.785543,0.281792 -1.173969,0.141601 -0.316899,-0.114367 -0.407644,-0.261747 -0.633563,-0.486088 -0.630874,-0.941335 -0.761034,-2.023859 -0.762626,-3.100013 -0.0013,-0.886453 0.01021,-1.772902 0.01531,-2.659354 -0.0088,0.603875 0.07943,-1.92211 0.05363,-1.441791 -0.02254,0.419843 0.06693,0.852641 -0.04856,1.260227 -0.04889,0.172538 -0.08483,-0.349848 -0.163048,-0.513453 -0.180051,-0.376626 -0.335307,-0.471359 -0.640495,-0.75433 -0.412385,-0.261076 -0.919371,-0.577524 -1.457639,-0.554839 -0.268952,0.01139 -0.438571,0.108454 -0.676696,0.207159 -0.62297,0.319423 -1.115816,0.796321 -1.704305,1.156521 -0.503999,0.270475 -0.80252,0.432969 -1.358475,0.182039 -0.231656,-0.122965 -0.437867,-0.280293 -0.613648,-0.461877 0,0 0.202421,-1.975746 0.202421,-1.975746 l 0,0 c 0.123734,0.192274 0.318605,0.336952 0.520105,0.463401 0.446052,0.272857 0.683669,0.06057 1.106768,-0.157934 0.581995,-0.382521 1.108824,-0.836809 1.749012,-1.146258 0.297367,-0.112078 0.463384,-0.203535 0.793742,-0.214488 0.587312,-0.0195 1.137267,0.311466 1.59937,0.586281 0.323546,0.27491 0.532475,0.407566 0.741973,0.776231 0.496204,0.873171 0.269864,2.275217 0.281988,3.009481 0.0027,0.1581 -0.05221,1.301114 -0.05744,1.415878 -0.0089,-0.341334 0.0019,-0.683575 -0.02686,-1.024031 -0.02146,-0.253897 -0.0076,0.509529 0.0049,0.763906 0.03057,0.623241 0.151329,1.231122 0.399431,1.815689 0.06356,0.149789 0.148137,0.291766 0.222205,0.43764 0.128921,0.14672 0.283359,0.366518 0.486943,0.456857 0.320989,0.14244 0.716455,-0.02527 1.010191,-0.133646 0.08413,-0.04877 0.173744,-0.09077 0.252385,-0.146389 0.213276,-0.150816 0.339488,-0.297717 0.506886,-0.49134 0.382263,-0.442158 0.743175,-0.899421 1.123673,-1.3428 0.690587,-0.790207 1.50475,-1.800023 2.595282,-2.175057 0.160182,-0.05501 0.334051,-0.07058 0.501078,-0.105921 0.150543,0.02403 0.316858,0.0076 0.451631,0.0721 0.153162,0.07322 0.450195,0.532631 0.515122,0.633905 0.296996,0.463309 0.535335,0.953208 0.774266,1.441684 0.417305,0.952121 0.746263,1.927454 1.057652,2.910924 0,0 -0.260725,1.958334 -0.260725,1.958334 z"
       inkscape:connector-curvature="0"
       inkscape:transform-center-x="62.319033"
       inkscape:transform-center-y="-15.983327" />
    <path
       style="fill:#000000;fill-opacity:1;stroke:none;stroke-width:0.125;stroke-linecap:round;stroke-linejoin:miter;stroke-miterlimit:4;stroke-dasharray:none;stroke-opacity:1"
       id="path4500-4"
       d="m 33.800727,100.24347 c -0.762419,-0.725114 -1.526857,-1.444245 -2.362469,-2.095913 -0.433804,-0.311575 -0.873505,-0.618951 -1.347978,-0.878293 -0.09517,-0.05204 -0.550651,-0.294156 -0.705842,-0.298475 -0.101685,-0.0028 -0.199995,0.0607 -0.299967,0.0911 -0.10295,0.09264 -0.219444,0.173738 -0.308802,0.27801 -0.714198,0.832735 -0.918014,2.059658 -1.118365,3.040801 -0.06589,0.42446 -0.15164,0.84766 -0.222269,1.27182 -0.04353,0.26144 -0.07903,0.60923 -0.162507,0.87301 -0.09183,0.29018 -0.154979,0.35364 -0.318781,0.60705 -0.252175,0.28576 -0.549435,0.62817 -0.957018,0.69452 -0.332528,0.0541 -0.483482,-0.0305 -0.789973,-0.11672 -1.008973,-0.51584 -1.649043,-1.39852 -2.17367,-2.33814 -0.432159,-0.77397 -0.85308,-1.554196 -1.27962,-2.331297 0.285897,0.531983 -0.865139,-1.718241 -0.654142,-1.285977 0.184434,0.377838 0.473045,0.712535 0.5703,1.124851 0.04117,0.17454 -0.244227,-0.264467 -0.392123,-0.369402 -0.340455,-0.24157 -0.522185,-0.248865 -0.926454,-0.347752 -0.487297,-0.02763 -1.084183,-0.05766 -1.543515,0.223873 -0.229484,0.140721 -0.330511,0.308008 -0.490604,0.51004 -0.389072,0.582018 -0.58787,1.238384 -0.926986,1.839274 -0.308908,0.4814 -0.490763,0.76853 -1.098585,0.81957 -0.262217,0.005 -0.518907,-0.032 -0.7608,-0.10525 0,0 -0.783739,-1.824913 -0.783739,-1.824913 l 0,0 c 0.20161,0.107857 0.44224,0.139535 0.6798,0.152061 0.522444,0.02156 0.62687,-0.279475 0.890353,-0.676129 0.322586,-0.617235 0.562074,-1.27036 0.971042,-1.852034 0.205358,-0.242521 0.305964,-0.403158 0.58932,-0.573352 0.503737,-0.302598 1.145229,-0.280776 1.682652,-0.265309 0.416392,0.08292 0.663462,0.09726 1.025779,0.317551 0.858146,0.521756 1.342047,1.856973 1.709646,2.492709 0.07923,0.136841 0.586992,1.162356 0.638219,1.265186 -0.173747,-0.29394 -0.330723,-0.598251 -0.52136,-0.881788 -0.142204,-0.21143 0.241058,0.448968 0.375685,0.665168 0.329739,0.52975 0.730819,1.00223 1.231842,1.39242 0.128375,0.1 0.271308,0.18293 0.406957,0.27439 0.183993,0.0655 0.425813,0.1825 0.647639,0.16246 0.349749,-0.0316 0.613786,-0.37042 0.817767,-0.60795 0.0498,-0.0835 0.107692,-0.16379 0.149371,-0.25063 0.113042,-0.23548 0.151907,-0.42522 0.204046,-0.6758 0.119057,-0.572245 0.212113,-1.147299 0.329033,-1.719745 0.21926,-1.026285 0.43973,-2.304559 1.21034,-3.162505 0.113227,-0.125952 0.257591,-0.224094 0.386363,-0.336186 0.143237,-0.05219 0.280578,-0.147421 0.429711,-0.156582 0.16944,-0.01048 0.65237,0.246547 0.758345,0.303476 0.484792,0.260458 0.931256,0.57267 1.377546,0.883352 0.827587,0.629107 1.58926,1.321453 2.339537,2.029453 0,0 0.724323,1.838047 0.724323,1.838047 z"
       inkscape:connector-curvature="0"
       inkscape:transform-center-x="61.997009"
       inkscape:transform-center-y="16.390822" />
    <path
       style="fill:#000000;fill-opacity:1;stroke:none;stroke-width:0.125;stroke-linecap:round;stroke-linejoin:miter;stroke-miterlimit:4;stroke-dasharray:none;stroke-opacity:1"
       id="path4500-21"
       d="m 48.747758,124.28234 c -1.023478,-0.24405 -2.045697,-0.48193 -3.095573,-0.62571 -0.531611,-0.0515 -1.066214,-0.0965 -1.606755,-0.0824 -0.108434,0.003 -0.623899,0.0222 -0.760263,0.0964 -0.08935,0.0486 -0.142447,0.15295 -0.213627,0.22944 -0.04249,0.13182 -0.102488,0.26046 -0.127382,0.39551 -0.199299,1.07879 0.240721,2.24209 0.560288,3.19112 0.156224,0.40012 0.294649,0.80915 0.44662,1.21139 0.09367,0.24793 0.237666,0.5665 0.297977,0.83652 0.06635,0.29705 0.04362,0.38363 0.02926,0.68503 -0.07452,0.37376 -0.159577,0.81915 -0.478686,1.08125 -0.260346,0.21384 -0.433404,0.21645 -0.741719,0.29587 -1.131564,0.0607 -2.128385,-0.38102 -3.053984,-0.93 -0.762445,-0.45219 -1.518311,-0.91543 -2.277467,-1.37315 0.514423,0.31641 -1.611132,-1.05122 -1.211564,-0.78342 0.349263,0.23408 0.766938,0.37853 1.058134,0.68621 0.123269,0.13024 -0.344021,-0.10602 -0.524614,-0.12247 -0.415729,-0.0379 -0.576536,0.0471 -0.975778,0.16464 -0.435247,0.22087 -0.966457,0.49471 -1.222234,0.96887 -0.127753,0.23695 -0.131086,0.43234 -0.168042,0.68745 -0.04409,0.6987 0.113684,1.36611 0.122265,2.05603 -0.02531,0.57143 -0.03834,0.91106 -0.53829,1.26049 -0.224139,0.13619 -0.464794,0.23294 -0.71073,0.29113 0,0 -1.594324,-1.18435 -1.594324,-1.18435 l 0,0 c 0.228506,-0.008 0.452491,-0.10147 0.664201,-0.20996 0.462589,-0.24377 0.401681,-0.55653 0.430283,-1.03186 -0.03108,-0.69576 -0.152054,-1.38081 -0.09058,-2.0892 0.05576,-0.31286 0.06207,-0.50229 0.221602,-0.79178 0.283593,-0.51468 0.849254,-0.81802 1.321735,-1.07459 0.401703,-0.13744 0.622546,-0.24915 1.046494,-0.24064 1.004111,0.0201 2.093199,0.93164 2.730383,1.29672 0.137243,0.0785 1.091404,0.71026 1.18735,0.77344 -0.29788,-0.16689 -0.586468,-0.35118 -0.893728,-0.50061 -0.229162,-0.11139 0.433952,0.26714 0.658955,0.38647 0.551211,0.29245 1.135345,0.49955 1.764569,0.5853 0.161224,0.022 0.326482,0.0219 0.489719,0.0329 0.192013,-0.0358 0.459869,-0.0561 0.641616,-0.18481 0.28656,-0.203 0.344686,-0.6286 0.401763,-0.93645 0.0011,-0.0973 0.01085,-0.19572 0.0033,-0.29175 -0.02053,-0.2604 -0.08222,-0.44398 -0.163006,-0.68686 -0.184476,-0.55461 -0.392851,-1.0986 -0.57928,-1.65232 -0.325892,-0.99757 -0.777306,-2.21363 -0.54189,-3.34257 0.03464,-0.16578 0.11018,-0.32315 0.165229,-0.48476 0.09764,-0.11708 0.168569,-0.26841 0.292923,-0.35123 0.14125,-0.0942 0.687943,-0.11449 0.808175,-0.11849 0.550025,-0.0183 1.092903,0.0274 1.634861,0.0719 1.031607,0.1283 2.037983,0.3444 3.042366,0.57976 0,0 1.54954,1.22554 1.54954,1.22554 z"
       inkscape:connector-curvature="0"
       inkscape:transform-center-x="45.166245"
       inkscape:transform-center-y="45.326091" />
    <path
       style="fill:#000000;fill-opacity:1;stroke:none;stroke-width:0.125;stroke-linecap:round;stroke-linejoin:miter;stroke-miterlimit:4;stroke-dasharray:none;stroke-opacity:1"
       id="path4500-7"
       d="m 139.70217,94.353244 c 0.29179,1.010905 0.58833,2.017669 0.98039,3.002153 0.21703,0.48802 0.44128,0.975392 0.71979,1.438868 0.0559,0.09298 0.32668,0.532001 0.45844,0.614112 0.0863,0.0538 0.20327,0.04862 0.30491,0.07288 0.13564,-0.02796 0.27715,-0.03911 0.40693,-0.08397 1.03701,-0.357987 1.83261,-1.313968 2.50107,-2.05957 0.27125,-0.333059 0.55902,-0.655013 0.83421,-0.985415 0.16961,-0.203648 0.37592,-0.48589 0.58119,-0.67139 0.22583,-0.204076 0.31237,-0.226939 0.58174,-0.362916 0.36198,-0.119267 0.79148,-0.264652 1.17677,-0.11606 0.31433,0.121228 0.40186,0.270546 0.62285,0.499736 0.61027,0.954824 0.71688,2.03992 0.6951,3.115854 -0.0179,0.886272 -0.0487,1.772264 -0.0731,2.658394 0.022,-0.60354 -0.12116,1.91993 -0.0849,1.44029 0.0316,-0.41926 -0.0484,-0.8539 0.0759,-1.25888 0.0526,-0.17143 0.0772,0.35161 0.15186,0.51688 0.17182,0.38044 0.32499,0.47853 0.62395,0.76806 0.40662,0.26998 0.90661,0.59736 1.44524,0.58638 0.26914,-0.006 0.44083,-0.0989 0.68104,-0.19241 0.62976,-0.30581 1.13285,-0.77189 1.72903,-1.11922 0.50976,-0.25946 0.81174,-0.41543 1.36211,-0.15248 0.22893,0.12797 0.43167,0.28974 0.60347,0.4751 0,0 -0.2453,1.97088 -0.2453,1.97088 l 0,0 c -0.11953,-0.19492 -0.31121,-0.3438 -0.50991,-0.47459 -0.44002,-0.28249 -0.6822,-0.0754 -1.10994,0.13385 -0.59017,0.36979 -1.12674,0.81252 -1.7735,1.10799 -0.29974,0.10559 -0.4677,0.19342 -0.79822,0.19719 -0.5876,0.007 -1.13023,-0.3361 -1.58625,-0.62089 -0.3175,-0.28187 -0.5235,-0.41904 -0.72494,-0.79217 -0.47711,-0.88374 -0.22037,-2.28054 -0.21654,-3.01489 7.4e-4,-0.15812 0.0805,-1.299677 0.0882,-1.4143 0.001,0.341446 -0.0167,0.68337 0.005,1.02437 0.016,0.25431 0.0187,-0.50924 0.0117,-0.763829 -0.017,-0.623758 -0.12455,-1.234119 -0.3599,-1.823938 -0.0603,-0.151133 -0.14176,-0.294914 -0.21264,-0.442366 -0.1257,-0.149487 -0.27533,-0.372583 -0.4769,-0.467325 -0.31782,-0.149381 -0.71684,0.0097 -1.01286,0.111669 -0.0852,0.04695 -0.17567,0.08697 -0.2555,0.140869 -0.21651,0.146145 -0.34588,0.290265 -0.51745,0.48021 -0.39177,0.433749 -0.76254,0.883063 -1.15258,1.318072 -0.70759,0.775016 -1.5435,1.766908 -2.64192,2.118158 -0.16134,0.0515 -0.33551,0.0633 -0.50326,0.095 -0.14999,-0.0273 -0.31662,-0.0145 -0.44996,-0.0819 -0.15153,-0.0765 -0.43852,-0.54229 -0.50123,-0.64495 -0.28686,-0.46965 -0.5145,-0.964614 -0.74276,-1.458166 -0.39652,-0.960962 -0.70421,-1.943213 -0.99416,-2.933217 0,0 0.30321,-1.952202 0.30321,-1.952202 z"
       inkscape:connector-curvature="0"
       inkscape:transform-center-x="-61.968945"
       inkscape:transform-center-y="17.288436" />
    <path
       style="fill:#000000;fill-opacity:1;stroke:none;stroke-width:0.125;stroke-linecap:round;stroke-linejoin:miter;stroke-miterlimit:4;stroke-dasharray:none;stroke-opacity:1"
       id="path4500-1"
       d="m 125.78297,120.87599 c -0.26856,1.01733 -0.53089,2.03354 -0.69983,3.07967 -0.0643,0.53022 -0.12203,1.06359 -0.12094,1.60431 2e-4,0.10847 0.007,0.62425 0.0782,0.76236 0.0465,0.0905 0.14948,0.14608 0.22425,0.21907 0.13076,0.0456 0.25792,0.10871 0.39233,0.13684 1.0737,0.22514 2.24722,-0.18684 3.20365,-0.48353 0.40376,-0.14658 0.81599,-0.27514 1.22176,-0.41742 0.2501,-0.0877 0.57204,-0.224 0.84343,-0.27781 0.29856,-0.0592 0.38457,-0.0344 0.68553,-0.0128 0.37187,0.0835 0.81509,0.1792 1.06946,0.5045 0.20752,0.26541 0.20598,0.43848 0.27797,0.74861 0.0336,1.1327 -0.43199,2.11863 -1.00302,3.03078 -0.47037,0.75137 -0.95162,1.4959 -1.42743,2.24385 0.32867,-0.50668 -1.08959,1.58544 -0.81227,1.19242 0.24239,-0.34355 0.39682,-0.75764 0.71141,-1.04136 0.13316,-0.12011 -0.11424,0.34137 -0.13503,0.52152 -0.0478,0.4147 0.0332,0.5775 0.14117,0.97945 0.21036,0.44042 0.47137,0.97805 0.93926,1.24514 0.23381,0.1334 0.42907,0.14142 0.68322,0.18449 0.69744,0.0609 1.36844,-0.0809 2.05837,-0.0729 0.57065,0.039 0.90988,0.0602 1.24721,0.56839 0.13076,0.22734 0.22171,0.47025 0.27398,0.71751 0,0 -1.22227,1.56544 -1.22227,1.56544 l 0,0 c -0.003,-0.22863 -0.0906,-0.4548 -0.19396,-0.66905 -0.2326,-0.46831 -0.54673,-0.41492 -1.02124,-0.45492 -0.6963,0.0144 -1.38405,0.11886 -2.09077,0.0404 -0.31143,-0.0633 -0.50066,-0.0741 -0.78624,-0.24055 -0.50772,-0.29586 -0.79739,-0.86864 -1.04254,-1.34714 -0.12777,-0.40489 -0.23414,-0.62835 -0.21546,-1.05197 0.0442,-1.00334 0.98161,-2.07024 1.36189,-2.69847 0.0818,-0.13532 0.73624,-1.07404 0.80171,-1.16845 -0.174,0.29379 -0.36516,0.57787 -0.52191,0.88146 -0.11687,0.22642 0.27748,-0.42742 0.40217,-0.64949 0.3056,-0.54403 0.52666,-1.12303 0.62748,-1.75001 0.0258,-0.16065 0.0297,-0.32587 0.0446,-0.48879 -0.0311,-0.19282 -0.045,-0.46109 -0.16936,-0.64587 -0.19606,-0.29135 -0.62015,-0.35967 -0.92654,-0.42412 -0.0972,-0.003 -0.1954,-0.0156 -0.29158,-0.0103 -0.26082,0.0143 -0.44583,0.0715 -0.69057,0.14647 -0.55889,0.17111 -1.10772,0.36637 -1.66576,0.53946 -1.0051,0.30185 -2.23165,0.72395 -3.35461,0.4615 -0.1649,-0.0386 -0.32042,-0.1179 -0.48066,-0.17682 -0.1147,-0.10042 -0.26428,-0.17496 -0.3441,-0.30127 -0.0907,-0.14347 -0.0979,-0.69049 -0.0991,-0.81078 -0.005,-0.55031 0.0537,-1.09193 0.11114,-1.63267 0.15303,-1.02823 0.39322,-2.02913 0.65262,-3.02757 0,0 1.26238,-1.51968 1.26238,-1.51968 z"
       inkscape:connector-curvature="0"
       inkscape:transform-center-x="-44.175286"
       inkscape:transform-center-y="46.249526" />
    <path
       style="fill:#000000;fill-opacity:1;stroke:none;stroke-width:0.125;stroke-linecap:round;stroke-linejoin:miter;stroke-miterlimit:4;stroke-dasharray:none;stroke-opacity:1"
       id="path4500-17"
       d="m 102.4149,135.41821 c -0.72835,0.75932 -1.45074,1.52069 -2.10596,2.35352 -0.313417,0.43247 -0.622665,0.87086 -0.884026,1.34422 -0.05244,0.095 -0.296499,0.54939 -0.30148,0.70456 -0.0033,0.10168 0.05985,0.20026 0.08982,0.30036 0.0922,0.10334 0.172801,0.22018 0.276692,0.30998 0.829684,0.71774 2.055724,0.92678 3.036004,1.13131 0.42417,0.0677 0.84701,0.15525 1.27086,0.22769 0.26125,0.0446 0.60889,0.0816 0.87231,0.16622 0.2898,0.0931 0.35297,0.15648 0.60568,0.32136 0.28469,0.2534 0.62583,0.55211 0.69044,0.95997 0.0527,0.33276 -0.0326,0.48335 -0.12008,0.78947 -0.52014,1.00677 -1.40553,1.64307 -2.34737,2.16369 -0.77581,0.42886 -1.55782,0.84645 -2.33674,1.26968 0.5332,-0.28363 -1.721904,0.85781 -1.288745,0.64865 0.378615,-0.18282 0.714545,-0.47 1.127265,-0.5655 0.17472,-0.0404 -0.2655,0.2431 -0.37107,0.39055 -0.24302,0.33942 -0.25108,0.52112 -0.35169,0.92496 -0.0297,0.48718 -0.0623,1.08393 0.21729,1.54446 0.13974,0.23008 0.3066,0.33182 0.50795,0.49277 0.58035,0.39155 1.23586,0.59314 1.8353,0.93481 0.48008,0.31096 0.76644,0.49404 0.81488,1.10207 0.004,0.26224 -0.0343,0.51877 -0.10848,0.76034 0,0 -1.82824,0.77596 -1.82824,0.77596 l 0,0 c 0.10872,-0.20115 0.14142,-0.44164 0.15496,-0.67914 0.0238,-0.52235 -0.2768,-0.62806 -0.67233,-0.89323 -0.61586,-0.32521 -1.267952,-0.56748 -1.847879,-0.97892 -0.241644,-0.20639 -0.401851,-0.30768 -0.570836,-0.59176 -0.300449,-0.50502 -0.275895,-1.14642 -0.258138,-1.68377 0.08469,-0.41603 0.10008,-0.66304 0.321918,-1.02441 0.525408,-0.85592 1.862675,-1.33413 2.499965,-1.69902 0.13718,-0.0786 1.16485,-0.58203 1.26789,-0.63282 -0.29467,0.17249 -0.59965,0.32817 -0.884,0.5176 -0.21203,0.1413 0.44999,-0.23914 0.66676,-0.37285 0.53115,-0.32748 1.00533,-0.72654 1.39766,-1.2259 0.10053,-0.12794 0.18408,-0.27052 0.27612,-0.40578 0.0663,-0.18371 0.18431,-0.42503 0.16522,-0.64694 -0.0301,-0.34988 -0.36781,-0.61536 -0.60446,-0.82035 -0.0833,-0.0502 -0.16334,-0.10839 -0.24999,-0.15044 -0.235,-0.11404 -0.42457,-0.15372 -0.67493,-0.20692 -0.57173,-0.1215 -1.14638,-0.217 -1.71832,-0.33636 -1.025341,-0.22363 -2.302664,-0.44954 -3.157319,-1.2238 -0.125469,-0.11376 -0.222995,-0.25854 -0.334537,-0.38779 -0.05158,-0.14346 -0.146224,-0.28121 -0.15475,-0.43038 -0.0098,-0.16948 0.249324,-0.65131 0.306704,-0.75704 0.262521,-0.48368 0.576633,-0.92881 0.889213,-1.37377 0.632627,-0.8249 1.328213,-1.58362 2.039399,-2.33087 0,0 1.84111,-0.71649 1.84111,-0.71649 z"
       inkscape:connector-curvature="0"
       inkscape:transform-center-x="-16.13904"
       inkscape:transform-center-y="62.068056" />
    <path
       style="fill:#000000;fill-opacity:1;stroke:none;stroke-width:0.125;stroke-linecap:round;stroke-linejoin:miter;stroke-miterlimit:4;stroke-dasharray:none;stroke-opacity:1"
       id="path4500-173"
       d="m 75.142427,137.13011 c -1.001839,0.32154 -1.999398,0.64772 -2.971864,1.0687 -0.48139,0.23136 -0.961922,0.46992 -1.416964,0.76201 -0.09129,0.0586 -0.522112,0.34226 -0.600293,0.47639 -0.05123,0.0879 -0.04259,0.20462 -0.06384,0.30693 0.03195,0.13476 0.04729,0.27587 0.09596,0.40427 0.388481,1.02597 1.367559,1.79297 2.132594,2.4391 0.340931,0.26129 0.671251,0.53942 1.009642,0.80472 0.208572,0.16352 0.496789,0.36139 0.688275,0.56109 0.210662,0.2197 0.236073,0.30553 0.379951,0.57076 0.129915,0.35829 0.287931,0.78331 0.150793,1.17282 -0.111885,0.31779 -0.258551,0.40968 -0.481108,0.63735 -0.93637,0.63823 -2.01784,0.77687 -3.093948,0.78689 -0.886415,0.008 -1.772928,0.004 -2.659392,0.006 0.603925,0.004 -1.922674,-0.0644 -1.442168,-0.0423 0.420008,0.0192 0.852092,-0.0736 1.260569,0.0387 0.172916,0.0475 -0.349172,0.0876 -0.512159,0.16707 -0.375204,0.183 -0.468718,0.33899 -0.74929,0.64638 -0.257837,0.41442 -0.570303,0.92387 -0.543402,1.46195 0.0135,0.26885 0.111886,0.4377 0.212454,0.67505 0.324294,0.62045 0.805038,1.10954 1.169837,1.69519 0.274416,0.50186 0.439243,0.7991 0.192676,1.35701 -0.121146,0.23261 -0.276854,0.44005 -0.457054,0.61724 0,0 -1.977271,-0.18693 -1.977271,-0.18693 l 0,0 c 0.191298,-0.12524 0.334445,-0.32124 0.459311,-0.52372 0.269354,-0.44818 0.05521,-0.68412 -0.166599,-1.1055 -0.38707,-0.57898 -0.845471,-1.10223 -1.159926,-1.73998 -0.114404,-0.29648 -0.207158,-0.46177 -0.2207,-0.79203 -0.0241,-0.58714 0.302547,-1.13968 0.573734,-1.60392 0.272366,-0.32569 0.403381,-0.53565 0.770394,-0.74803 0.869257,-0.50303 2.273033,-0.28768 3.007179,-0.30556 0.158074,-0.004 1.301483,0.042 1.416285,0.0463 -0.341253,0.0116 -0.683568,0.003 -1.023789,0.0349 -0.253721,0.0235 0.509573,0.004 0.763844,-0.0109 0.622982,-0.0354 1.229899,-0.16097 1.812506,-0.41364 0.149282,-0.0647 0.290593,-0.15042 0.435886,-0.22563 0.145705,-0.13007 0.364281,-0.28622 0.453024,-0.49051 0.139922,-0.32209 -0.03088,-0.71623 -0.141558,-1.00911 -0.04945,-0.0838 -0.09213,-0.17303 -0.148359,-0.25123 -0.15248,-0.21209 -0.300361,-0.33715 -0.495294,-0.50302 -0.44514,-0.37879 -0.905216,-0.73611 -1.351563,-1.11312 -0.795593,-0.68438 -1.811756,-1.4906 -2.195323,-2.57816 -0.05626,-0.15975 -0.07319,-0.33349 -0.109842,-0.50024 0.02285,-0.15072 0.0051,-0.3169 0.06856,-0.45218 0.07202,-0.15373 0.529088,-0.45435 0.62985,-0.52007 0.460968,-0.30062 0.948985,-0.54279 1.435574,-0.78554 0.948823,-0.42475 1.92155,-0.76134 2.902551,-1.08042 0,0 1.960311,0.24537 1.960311,0.24537 z"
       inkscape:connector-curvature="0"
       inkscape:transform-center-x="15.510939"
       inkscape:transform-center-y="62.438631" />
  </g>
</svg>
